<svg xmlns="http://www.w3.org/2000/svg" viewBox="0 0 16 16">
  <defs id="defs3051">
    <style type="text/css" id="current-color-scheme">
      .ColorScheme-Text {
        color:#232629;
      }
    </style>
  </defs>
  <path
      d="M 0,0 V 3 H 3 V 0 Z M 1,1 H 2 V 2 H 1 Z M 5,1 V 2 H 16 V 1 Z M 0,4 V 7 H 3 V 4 Z M 1,5 H 2 V 6 H 1 Z m 4,0 v 1 h 9 V 5 Z M 0,8 v 3 H 3 V 8 Z m 1,1 h 1 v 1 H 1 Z m 4,0 v 1 h 7 V 9 Z m -5,3 v 3 h 3 v -3 z m 1,1 h 1 v 1 H 1 Z m 4,0 v 1 h 9 v -1 z"
      style="fill:currentColor"
      class="ColorScheme-Text" />
</svg>
